# xmcd CD database file
#
# Track frame offsets:
#	150
#	9970
#	30220
#	40183
#	52140
#	67357
#	89626
#	178134
#
# Disc length: 2614 seconds
#
# Revision: 0
# Processed by: cddbd v1.5.1PL2 Copyright (c) Steve Scherf et al.
# Submitted via: CDex 1.51
#
DISCID=690a3408
DTITLE=ダた - ダたスタンダード
DYEAR=1900
DGENRE=New Age
TTITLE0=4月
TTITLE1=ぶどう狩り
TTITLE2=青色の歌
TTITLE3=おじょうさんが消えた
TTITLE4=燃え上がる炎・誓う心
TTITLE5=100年前から君を待ってた （ロック）
TTITLE6=寄り合いの緊張
TTITLE7=光る石 （説教）
EXTD=
EXTT0=
EXTT1=
EXTT2=
EXTT3=
EXTT4=
EXTT5=
EXTT6=
EXTT7=
PLAYORDER=
